<?xml version="1.0" encoding="UTF-8"?>
<svg width="31px" height="35px" viewBox="0 0 31 35" version="1.1" xmlns="http://www.w3.org/2000/svg" xmlns:xlink="http://www.w3.org/1999/xlink">
    <title>_icons/bag</title>
    <g id="TWINT-Screen-Ajustement-step-3" stroke="none" stroke-width="1" fill="none" fill-rule="evenodd">
        <g id="Twint_PLP_Basket_Preview_v2" transform="translate(-172.000000, -480.000000)" fill="#000000">
            <g id="_icons/bag" transform="translate(172.000000, 480.000000)">
                <path d="M29.4274776,7.79801419 L28.5515147,6.92043862 L21.2422845,6.92043862 L21.2422845,6.10557727 C21.1744079,2.86398687 18.6064518,0.290563072 15.4999783,0.351044608 C12.3935104,0.290571513 9.82556313,2.86399288 9.75768651,6.10557727 L9.75768651,6.92043862 L2.4481086,6.92043862 L1.5724934,7.79801419 L0.8,33.7725152 L1.6756152,34.65 L29.3240371,34.65 L30.2,33.7725152 L29.4274776,7.79801419 Z M19.4907064,6.92043862 L11.5092647,6.92043862 L11.5092647,6.10557727 C11.5564659,3.85288307 13.3411861,2.06462444 15.4999783,2.10695178 C17.6587704,2.06462444 19.4434907,3.85288307 19.4907064,6.10557727 L19.4907064,6.92043862 Z" id="color"></path>
            </g>
        </g>
    </g>
</svg>