<?xml version="1.0" encoding="UTF-8"?>
<svg width="97px" height="32px" viewBox="0 0 97 32" version="1.1" xmlns="http://www.w3.org/2000/svg" xmlns:xlink="http://www.w3.org/1999/xlink">
    <!-- Generator: Sketch 55.2 (78181) - https://sketchapp.com -->
    <title>Twint</title>
    <desc>Created with Sketch.</desc>
    <g id="TWINT-v2" stroke="none" stroke-width="1" fill="none" fill-rule="evenodd">
        <g id="Authentication-01" transform="translate(-139.000000, -188.000000)" fill="#ffffff">
            <g id="Twint" transform="translate(139.000000, 188.000000)">
                <g id="Group">
                    <path d="M96.9923786,9.75376623 L85.8117429,9.75376623 L85.8117429,12.4280519 L89.8275429,12.4280519 L89.8275429,23.8587013 L92.9925143,23.8587013 L92.9925143,12.4280519 L96.9916857,12.4280519 L96.9923786,9.75376623 Z M46.1955571,9.75376623 L34.9982929,9.75376623 L34.9982929,12.4280519 L39.0140929,12.4280519 L39.0140929,23.8587013 L42.1790643,23.8587013 L42.1790643,12.4280519 L46.1948643,12.4280519 L46.1955571,9.75376623 Z M78.5623786,9.31116883 C75.0398929,9.31116883 73.0825714,11.5594805 73.0825714,14.8135065 L73.0825714,23.8593939 L76.2135929,23.8593939 L76.2135929,14.7456277 C76.2135929,13.3319481 77.0477929,12.2417316 78.5963286,12.2417316 C80.1448643,12.2417316 80.9617429,13.5362771 80.9617429,14.7456277 L80.9617429,23.8593939 L84.0927643,23.8593939 L84.0927643,14.8135065 C84.1100857,11.5594805 82.0848643,9.31116883 78.5623786,9.31116883 Z M66.7526286,9.75376623 L66.7526286,23.8587013 L69.88365,23.8587013 L69.88365,9.75376623 L66.7526286,9.75376623 Z M56.1339,15.3412987 L56.23575,15.9716017 L59.1797,23.8587013 L60.4559429,23.8587013 L64.4551143,9.75376623 L61.3746714,9.75376623 L59.4686214,17.164329 L59.34945,17.9650216 L59.1963286,17.164329 L56.6438429,9.75376623 L55.6225714,9.75376623 L53.0700857,17.164329 L52.9169643,17.9650216 L52.8151143,17.164329 L50.9090643,9.75376623 L47.8119929,9.75376623 L51.8111643,23.8587013 L53.0874071,23.8587013 L56.0313571,15.9716017 L56.1332071,15.3412987 L56.1339,15.3412987 Z" id="Shape1" fill-rule="nonzero"></path>
                    <path d="M27.6463857,23.1605195 C27.6463857,23.5691775 27.3567714,24.0637229 26.99995,24.2680519 L14.5091214,31.4909091 C14.1516071,31.6952381 13.5730714,31.6952381 13.2155571,31.4909091 L0.724728571,24.2680519 C0.367214286,24.0637229 0.0782928571,23.5698701 0.0782928571,23.1605195 L0.0782928571,8.71480519 C0.0782928571,8.30614719 0.367907143,7.81160173 0.724728571,7.60727273 L13.2155571,0.384415584 C13.5730714,0.18008658 14.1516071,0.18008658 14.5091214,0.384415584 L26.99995,7.60727273 C27.3574643,7.81160173 27.6463857,8.30545455 27.6463857,8.71480519 L27.6463857,23.1605195 L27.6463857,23.1605195 Z M20.3797,15.9716017 L17.1121857,20.7584416 L15.4444786,18.20329 L17.3671571,15.3246753 C17.7246714,14.8135065 18.4902786,13.3998268 17.6055,11.4749784 C16.8904714,9.90753247 15.3419357,9.15809524 13.9804714,9.15809524 C12.6190071,9.15809524 11.1383714,9.85627706 10.3388143,11.4749784 C9.43671429,13.3319481 10.2196429,14.7795671 10.5598357,15.2741126 C10.5598357,15.2741126 11.6316857,16.8415584 12.5171571,18.1700433 L13.9638429,20.2652814 L16.1421857,23.6045022 C16.1595071,23.6218182 16.4997,24.1496104 17.1121857,24.1496104 C17.6907214,24.1496104 18.0482357,23.6218182 18.0995071,23.5705628 L23.2044786,16.0069264 L20.3797,16.0069264 L20.3797,15.9716017 Z M13.9638429,16.0907359 C13.9638429,16.0907359 13.1130143,14.7961905 12.5511071,13.892987 C11.95525,12.9219048 12.6190071,11.4742857 13.9638429,11.4742857 C15.3079857,11.4742857 15.9717429,12.9225974 15.3765786,13.892987 C14.8319929,14.7961905 13.9638429,16.0907359 13.9638429,16.0907359 Z M10.8328214,20.605368 L7.63320714,16.1080519 C7.63320714,16.1080519 6.78237857,14.8135065 6.22047143,13.910303 C5.62461429,12.9392208 6.28837143,11.4916017 7.63320714,11.4916017 C7.80365,11.4916017 7.95677143,11.5089177 8.10989286,11.5594805 L9.23301429,9.49818182 C8.72237857,9.2765368 8.16116429,9.1574026 7.65052857,9.1574026 C6.28906429,9.1574026 4.80842857,9.85558442 4.00887143,11.4742857 C3.10677143,13.3312554 3.8897,14.7788745 4.22989286,15.2734199 L9.82887143,23.5698701 C9.88014286,23.6377489 10.2369643,24.1662338 10.8328214,24.1662338 C11.4286786,24.1662338 11.7688714,23.6550649 11.8201429,23.5871861 L13.5051714,21.0147186 L12.0584857,18.8855411 L10.8335143,20.6060606 L10.8328214,20.605368 Z" id="Shape"></path>
                </g>
            </g>
        </g>
    </g>
</svg>