<?xml version="1.0" encoding="UTF-8"?>
<svg width="71px" height="70px" viewBox="0 0 71 70" version="1.1" xmlns="http://www.w3.org/2000/svg" xmlns:xlink="http://www.w3.org/1999/xlink">
    <title>_brand icons/80x80/Invoice</title>
    <g id="TWINT-Screen-NN-step-4" stroke="none" stroke-width="1" fill="none" fill-rule="evenodd">
        <g id="Twint-Step-4-–-State-2-–-Payement-validated" transform="translate(-152.000000, -301.000000)">
            <g id="Content" transform="translate(0.000000, 297.000000)">
                <g id="thanks" transform="translate(20.000000, 0.000000)">
                    <g id="_brand-icons/80x80/Satisfied-reimbursed" transform="translate(128.000000, 0.000000)">
                        <rect id="bounding-box" x="0" y="0" width="78.423684" height="78.219311"></rect>
                        <path d="M39.211842,4.69315866 C49.143704,4.69315866 58.3771672,8.89468249 64.8994429,16.1410688 L63.7153988,17.1803577 C57.490115,10.2639358 48.6854849,6.25754488 39.211842,6.25754488 C21.0646561,6.25754488 6.28173708,21.0019395 6.28173708,39.1096555 C6.28173708,57.2173715 21.0646561,71.9617661 39.211842,71.9617661 C57.3590278,71.9617661 72.1419469,57.2173715 72.1419469,39.1096555 C72.1419469,32.4963755 70.1836653,26.2071413 66.5480405,20.7679158 L67.8701538,19.9061259 C71.6747481,25.598145 73.7261053,32.1863015 73.7261053,39.1096555 C73.7261053,58.0778929 58.2374823,73.5261523 39.211842,73.5261523 C20.1862016,73.5261523 4.69757867,58.0778929 4.69757867,39.1096555 C4.69757867,20.1414181 20.1862016,4.69315866 39.211842,4.69315866 Z M73.1397175,9.63426858 L74.2968084,10.7027523 L33.6691983,53.6081178 L18.198287,34.1168413 L19.4450813,33.1517661 L33.7751699,51.2057589 L73.1397175,9.63426858 Z" id="Combined-Shape" fill="#000000"></path>
                    </g>
                </g>
            </g>
        </g>
    </g>
</svg>